Coordinates
version=1
nRows=16
nColumns=33
inDegrees=yes

Units are S.I. units (second, meters, Newtons, ...)
Angles are in degrees.

endheader
time	ground_thorax_rot_x	ground_thorax_rot_y	ground_thorax_rot_z	ground_thorax_tx	ground_thorax_ty	ground_thorax_tz	clav_prot_r	clav_elev_r	scapula_abduction_r	scapula_elevation_r	scapula_upward_rot_r	scapula_winging_r	shoulder_elv_r	plane_of_elev_r	axial_rot_r	elbow_flexion_r	pro_sup_r	wrist_flex_r	wrist_dev_r	clav_prot_l	clav_elev_l	scapula_abduction_l	scapula_elevation_l	scapula_upward_rot_l	scapula_winging_l	shoulder_elv_l	plane_of_elev_l	axial_rot_l	elbow_flexion_l	pro_sup_l	wrist_flex_l	wrist_dev_l
     11.26000000	     39.94565141	     10.33709591	     11.94879292	   -249.84241612	    853.35325944	      7.72290960	     12.48149868	     38.56079324	     37.21423695	     45.00000000	    -35.93310111	   2068.77471371	   -831.47796499	    146.71954616	   -126.28202345	   1100.14911488	    101.13220432	     11.90142676	      2.28325669	      8.34058182	    -45.00000000	    -36.19623009	     45.00000000	    -45.00000000	  -2058.22328126	    267.86274111	    140.21311863	    144.18638237	   2530.87838505	     14.08663843	      3.20443634	    -20.01017410
     11.27000000	     39.92295221	     10.42564953	     12.16451227	   -250.01547852	    853.19528322	      7.70377261	     12.21175906	     38.25969411	     37.29345782	     45.00000000	    -36.35472099	   2068.76974498	   -831.38782219	    146.67821141	   -126.58785197	   1100.17581310	    100.96601207	     12.51063983	      2.19945814	      8.30305117	    -45.00000000	    -35.99590525	     45.00000000	    -45.00000000	  -2058.31223523	    267.96865983	    140.38448862	    143.65850195	   2531.05257350	     14.22662071	      3.46364405	    -19.32092335
     11.28000000	     39.88189496	     10.45380783	     12.17284748	   -250.11126246	    853.00748939	      7.68018248	     12.43389715	     38.39784897	     37.14783521	     45.00000000	    -36.57386855	   2068.87819592	   -831.36129076	    146.65880178	   -126.75768906	   1100.14513143	    100.74627739	     12.11475557	      2.20566282	      8.29618964	    -45.00000000	    -36.11991163	     45.00000000	    -45.00000000	  -2058.15480891	    267.86245837	    140.27624921	    143.65550359	   2530.91750769	     14.26233413	      3.07016081	    -19.67400975
     11.29000000	     39.85484570	     10.51387796	     12.38753182	   -250.12625748	    852.79612624	      7.65553378	     12.31215992	     38.13136162	     37.29107814	     45.00000000	    -36.72534602	   2068.85454724	   -831.37411624	    146.70575838	   -126.72242819	   1100.14115220	    100.59662397	     12.59780760	      2.17306094	      8.36072154	    -45.00000000	    -35.92025999	     45.00000000	    -45.00000000	  -2058.32740804	    267.93097550	    140.43144001	    143.59820207	   2530.96078722	     14.39537091	      3.34055322	    -19.35189065
     11.30000000	     39.80480678	     10.49254147	     12.33452602	   -250.06387066	    852.55909920	      7.63176339	     12.47519465	     38.43306642	     37.07759176	     45.00000000	    -36.72887138	   2068.91376198	   -831.38812191	    146.56048960	   -126.83093571	   1100.12840138	    100.42185880	     12.11981129	      2.15029103	      8.28418610	    -45.00000000	    -36.19063540	     45.00000000	    -45.00000000	  -2058.13024366	    267.81484616	    140.24707336	    143.57140185	   2530.93964267	     14.46459275	      3.00084552	    -19.56758579
     11.31000000	     39.78984380	     10.45106350	     12.44641019	   -249.92566994	    852.29831787	      7.61141876	     12.39639460	     38.13423211	     37.24980860	     45.00000000	    -36.79213391	   2068.87051423	   -831.39919172	    146.59911698	   -126.73633142	   1100.21188044	    100.26962750	     12.55441665	      2.11386038	      8.36541563	    -45.00000000	    -36.01519304	     45.00000000	    -45.00000000	  -2058.30298932	    267.88673177	    140.41503790	    143.56844837	   2531.05044851	     14.62995275	      3.19001942	    -19.41364558
     11.32000000	     39.72911788	     10.50632933	     12.56249458	   -249.71847162	    852.02132841	      7.59755481	     12.44145583	     38.32470249	     37.19428085	     45.00000000	    -36.86586067	   2068.98590876	   -831.38051304	    146.65029896	   -126.72534814	   1100.19652354	    100.12256725	     12.38414179	      2.06337872	      8.32850859	    -45.00000000	    -36.10336501	     45.00000000	    -45.00000000	  -2058.21857783	    267.82118387	    140.34542033	    143.64764378	   2530.97633272	     14.74308794	      2.99515787	    -19.45211037
     11.33000000	     39.58082018	     10.63022434	     12.80260776	   -249.45114883	    851.73249299	      7.59235036	     12.43509629	     38.01708373	     37.25807932	     45.00000000	    -36.91572837	   2069.01999005	   -831.66675043	    146.73174487	   -126.70343606	   1099.99009098	    100.04674329	     12.69825480	      2.11510690	      8.41096343	    -45.00000000	    -35.91593701	     45.00000000	    -45.00000000	  -2058.47491833	    267.94227715	    140.47579955	    143.68787051	   2530.55654187	     14.90538913	      3.11344057	    -19.28134307
     11.34000000	     39.62762236	     10.54826545	     12.65326004	   -249.11829482	    851.42410187	      7.59771899	     12.47539439	     38.44409567	     37.16502436	     45.00000000	    -36.88987576	   2069.00740773	   -831.45357209	    146.64223679	   -126.73313630	   1100.26795748	     99.89446935	     12.41313262	      1.98093895	      8.32845979	    -45.00000000	    -36.13464861	     45.00000000	    -45.00000000	  -2058.25247649	    267.81542114	    140.20428282	    143.76794243	   2530.93635101	     14.99526038	      2.91572519	    -19.39837737
     11.35000000	     39.60959064	     10.58008473	     12.76106236	   -248.73922276	    851.11404400	      7.61502335	     12.46955055	     37.97550375	     37.29641403	     45.00000000	    -36.90062407	   2068.96712082	   -831.50248331	    146.69164989	   -126.61414769	   1100.24838049	     99.79223120	     12.80234127	      1.97658233	      8.39950302	    -45.00000000	    -36.00079670	     45.00000000	    -45.00000000	  -2058.55949620	    267.89395849	    140.42702436	    143.85713490	   2531.01479460	     15.14814954	      3.00596113	    -19.36749525
     11.36000000	     39.57204092	     10.61398519	     12.81515567	   -248.31412537	    850.80249819	      7.64441922	     12.50295016	     38.55518565	     37.20357916	     45.00000000	    -36.87394161	   2069.05612413	   -831.47455215	    146.66598119	   -126.69200728	   1100.15280355	     99.67910549	     12.48301507	      1.93664860	      8.33315032	    -45.00000000	    -36.16299873	     45.00000000	    -45.00000000	  -2058.30853448	    267.76077424	    140.12460830	    143.97224326	   2530.92352619	     15.26234632	      2.85609524	    -19.35333686
     11.37000000	     39.55910062	     10.62287214	     12.94129621	   -247.85284894	    850.49729753	      7.68423501	     12.49134275	     37.75587263	     37.39883922	     45.00000000	    -36.82692998	   2068.96358570	   -831.51023988	    146.74043130	   -126.55016998	   1100.22558294	     99.58944293	     12.96920261	      1.92125679	      8.42651174	    -45.00000000	    -35.94500817	     45.00000000	    -45.00000000	  -2058.75389163	    267.87114543	    140.49776192	    144.13338459	   2531.06609409	     15.39269069	      2.93585455	    -19.36116163
     11.38000000	     39.50627524	     10.51138381	     12.88668559	   -247.35611720	    850.20059419	      7.73202956	     12.49138656	     38.32056649	     37.30922643	     45.00000000	    -36.60954861	   2068.96003379	   -831.53592660	    146.65320412	   -126.65857076	   1100.29182618	     99.45723230	     12.66726192	      1.86025087	      8.32508631	    -45.00000000	    -36.09435827	     45.00000000	    -45.00000000	  -2058.51993807	    267.78842377	    140.18345552	    144.24905744	   2531.07952979	     15.53477413	      2.85102969	    -19.37191997
     11.39000000	     39.44042485	     10.60229943	     13.07083944	   -246.83326453	    849.91784833	      7.78340364	     12.53125389	     38.20960130	     37.33796977	     45.00000000	    -36.74051077	   2069.06209453	   -831.47386711	    146.68631509	   -126.47384521	   1100.24796228	     99.37169991	     12.83859947	      1.82249698	      8.38405511	    -45.00000000	    -36.03629054	     45.00000000	    -45.00000000	  -2058.65136683	    267.78959454	    140.27952748	    144.49114456	   2531.06377262	     15.63461729	      2.82656948	    -19.33527943
     11.40000000	     39.42124496	     10.54800280	     12.99071058	   -246.28338248	    849.64822636	      7.83411896	     12.49697677	     38.34295520	     37.30690233	     45.00000000	    -36.45822884	   2068.99489031	   -831.59203783	    146.62584457	   -126.67214791	   1100.20120249	     99.32823159	     12.62669165	      1.83102660	      8.39169423	    -45.00000000	    -36.13543599	     45.00000000	    -45.00000000	  -2058.60605418	    267.73378989	    140.08428797	    144.53570135	   2531.01467740	     15.74440293	      2.84206265	    -19.34558490
     11.41000000	     39.36207579	     10.64536231	     13.17890676	   -245.71831530	    849.39541922	      7.87850143	     12.51337706	     38.25020011	     37.50101114	     45.00000000	    -36.69493066	   2069.12804545	   -831.42927177	    146.82838923	   -126.36875974	   1100.26080241	     99.28926686	     12.95624529	      1.73707815	      8.37972371	    -45.00000000	    -35.99439237	     45.00000000	    -45.00000000	  -2058.83702508	    267.82059583	    140.25581318	    144.92247948	   2531.05282597	     15.77747143	      2.74183880	    -19.30084170
